# xmcd
#
# Track frame offsets:
#	150
#	22220
#	45865
#	67138
#	88118
#	111055
#	132625
#	156834
#	178540
#	201544
#	221953
#
# Disc length: 3267 seconds
#
# Revision: 1
# Processed by: cddbd v1.5.2PL0 Copyright (c) Steve Scherf et al.
# Submitted via: EZCDAudioConverter 8.0.2.1
#
DISCID=aa0cc10b
DTITLE=Xuân Phú - st. Minh Vy. Dường Như Em Đã Quên
DYEAR=2007
DGENRE=Miscellaneous
TTITLE0=Dường Như Em Đã Quên
TTITLE1=Chuyện một người điên
TTITLE2=Em xa tôi
TTITLE3=Ngày xưa biển hát
TTITLE4=Có những chiều em đên
TTITLE5=Biết nói sao tình tôi
TTITLE6=Tình nghèo
TTITLE7=Tìm quên kỷ niệm
TTITLE8=Ngày xưa hai đứa
TTITLE9=Cho trọn giấc mơ
TTITLE10=Anh nhớ em nhiều hơn
EXTD=
EXTT0=
EXTT1=
EXTT2=
EXTT3=
EXTT4=
EXTT5=
EXTT6=
EXTT7=
EXTT8=
EXTT9=
EXTT10=
PLAYORDER=
